<svg width="18" height="23" viewBox="0 0 18 23" fill="none" xmlns="http://www.w3.org/2000/svg">
<path d="M15.41 9.0707H15.3777C14.9366 9.06824 14.5104 9.23033 14.1822 9.52523C13.9166 8.79016 13.2416 8.26176 12.451 8.26176C11.9664 8.26516 11.5036 8.46409 11.1679 8.81377C10.8592 8.18883 10.2399 7.7649 9.52787 7.7649H9.49349C9.11188 7.75905 8.73952 7.88317 8.43763 8.11667V3.66144C8.43763 2.5848 7.59941 1.70898 6.57983 1.70898C5.56137 1.70898 4.7275 2.58424 4.72693 3.66012L4.71843 12.4995L4.21818 11.892C3.77951 11.3458 3.13379 11.0067 2.43518 10.9555C1.75092 10.9087 1.07781 11.1467 0.575291 11.6137L0.140026 11.9744C-0.00033908 12.0907 -0.0403895 12.2891 0.0436785 12.4508L4.27561 20.5854C5.04941 22.072 6.52164 22.9994 8.1178 22.9994H12.887V22.9952C15.3051 22.9952 17.2657 20.8969 17.2682 18.3204C17.2691 17.1677 17.2648 16.3085 17.2655 15.6121C17.268 13.749 17.2661 13.0616 17.2614 11.009C17.2589 9.9348 16.4267 9.0707 15.41 9.0707ZM16.4861 15.6095C16.4853 16.306 16.4842 17.1686 16.483 18.3214C16.481 20.4718 14.8576 22.2254 12.8643 22.2254H8.11799C6.81144 22.2254 5.60218 21.4574 4.96232 20.2279L0.874346 12.3726L1.07611 12.2043C1.08121 12.2001 1.08612 12.1952 1.09103 12.1909C1.43807 11.8642 1.90508 11.6965 2.38058 11.7276C2.86666 11.7648 3.31515 12.0025 3.61912 12.3835L4.80344 13.8246C4.90697 13.951 5.07888 13.9984 5.23266 13.9434C5.38644 13.8885 5.48921 13.7426 5.48921 13.5794L5.4962 3.6605C5.49658 3.011 5.98776 2.4826 6.5802 2.4826C7.17265 2.4826 7.66383 3.01157 7.66383 3.66144V9.64198C7.66383 9.66276 7.66289 9.68373 7.66289 9.70489C7.66289 9.71396 7.66383 9.72322 7.66383 9.7321V12.2891C7.66383 12.5028 7.83707 12.676 8.05073 12.676C8.2644 12.676 8.43763 12.5028 8.43763 12.2891V9.65502C8.43763 9.02838 8.91635 8.53871 9.49349 8.53871H9.52787C10.1207 8.53871 10.614 9.0554 10.614 9.70527V12.045C10.614 12.2587 10.7872 12.4319 11.0009 12.4319C11.2145 12.4319 11.3878 12.2587 11.3878 12.045V10.2093C11.3878 9.55924 11.8574 9.03046 12.4534 9.03046C13.0461 9.03046 13.5157 9.55905 13.5157 10.2093V11.9411C13.5157 12.1548 13.689 12.328 13.9026 12.328C14.1163 12.328 14.2895 12.1548 14.2895 11.9411V11.0033C14.2895 10.3533 14.7849 9.8445 15.3777 9.8445H15.41C16.0013 9.8445 16.4832 10.3619 16.4847 11.0099C16.4895 13.061 16.4885 13.7477 16.4861 15.6095Z" fill="black"/>
<path d="M3.49774 3.82897C3.71141 3.82897 3.88464 3.65573 3.88464 3.44207C3.89088 1.96568 5.08956 0.772292 6.56575 0.772292C8.04214 0.772292 9.24063 1.96568 9.24686 3.44207C9.24686 3.65573 9.4201 3.82897 9.63376 3.82897C9.84743 3.82897 10.0207 3.65573 10.0207 3.44207C10.0135 1.53892 8.4689 0 6.56575 0C4.66279 0 3.11802 1.53892 3.11084 3.44207C3.11084 3.65573 3.28408 3.82897 3.49774 3.82897Z" fill="black"/>
</svg>
