<svg width="9" height="14" viewBox="0 0 9 14" fill="none" xmlns="http://www.w3.org/2000/svg">
<path d="M5.69147 3.65941H2.54102C2.168 3.63609 1.79839 3.74241 1.49478 3.96037C1.19117 4.17833 0.972232 4.49453 0.875039 4.85542L0.372652 6.73532L0.204109 7.36087L0.0355665 7.98642C0.00634281 8.07097 -0.00506543 8.16065 0.00205944 8.24982C0.0091843 8.33899 0.0346882 8.42572 0.0769662 8.50456C0.119244 8.58339 0.177381 8.65262 0.247719 8.70789C0.318057 8.76317 0.399073 8.80328 0.48567 8.82572C0.572267 8.84815 0.66257 8.85242 0.750897 8.83825C0.839224 8.82409 0.923662 8.79179 0.9989 8.7434C1.07414 8.69501 1.13855 8.63157 1.18807 8.55708C1.2376 8.48258 1.27117 8.39864 1.28667 8.31054L1.45522 7.68499L1.62376 7.05944L1.94788 5.80833C1.96141 5.76783 1.98281 5.73041 2.01085 5.69821C2.03888 5.666 2.07301 5.63966 2.11126 5.62068C2.14951 5.60171 2.19113 5.59048 2.23373 5.58764C2.27634 5.5848 2.31908 5.5904 2.35951 5.60413C2.5313 5.64951 2.58964 5.77268 2.58964 5.99956L2.17152 13.1724C2.17152 13.3443 2.23982 13.5092 2.36139 13.6307C2.48296 13.7523 2.64784 13.8206 2.81976 13.8206C2.99169 13.8206 3.15657 13.7523 3.27814 13.6307C3.39971 13.5092 3.468 13.3443 3.468 13.1724L3.79213 8.63466C3.79213 8.5487 3.82627 8.46626 3.88706 8.40547C3.94784 8.34469 4.03028 8.31054 4.11625 8.31054C4.20221 8.31054 4.28465 8.34469 4.34543 8.40547C4.40622 8.46626 4.44037 8.5487 4.44037 8.63466L4.76449 13.1724C4.76449 13.3443 4.83278 13.5092 4.95435 13.6307C5.07592 13.7523 5.2408 13.8206 5.41273 13.8206C5.58465 13.8206 5.74954 13.7523 5.8711 13.6307C5.99267 13.5092 6.06097 13.3443 6.06097 13.1724L5.73685 7.98642L5.64285 5.9866C5.64285 5.77916 5.69796 5.63655 5.87298 5.59117C5.95593 5.56942 6.04411 5.58142 6.11823 5.62455C6.19234 5.66769 6.24634 5.73843 6.26841 5.82129L6.59253 7.0724L6.76107 7.69795L6.92961 8.32351C6.98287 8.4776 7.09224 8.60596 7.23592 8.68301C7.3796 8.76006 7.54703 8.78015 7.70486 8.73926C7.86268 8.69837 7.99931 8.59952 8.0875 8.4624C8.17569 8.32527 8.20898 8.15995 8.18072 7.99939L8.01218 7.37383L7.84363 6.74828L7.35745 4.85542C7.26026 4.49453 7.04132 4.17833 6.73771 3.96037C6.4341 3.74241 6.06449 3.63609 5.69147 3.65941Z" fill="white"/>
<path d="M4.11675 2.91709C4.92228 2.91709 5.57529 2.26407 5.57529 1.45854C5.57529 0.653012 4.92228 0 4.11675 0C3.31121 0 2.6582 0.653012 2.6582 1.45854C2.6582 2.26407 3.31121 2.91709 4.11675 2.91709Z" fill="white"/>
</svg>
